<svg width="32px" height="32px" viewBox="0 0 24 24" fill="none" xmlns="http://www.w3.org/2000/svg">

    <g id="SVGRepo_bgCarrier" stroke-width="0" />

    <g id="SVGRepo_tracerCarrier" stroke-linecap="round" stroke-linejoin="round" />

    <g id="SVGRepo_iconCarrier">
        <path fill-rule="evenodd" clip-rule="evenodd"
            d="M18.4475 3.07312C17.3881 2.74149 16.4186 3.58696 16.4186 4.62005V8.24569C15.1217 8.49768 13.614 8.64346 12 8.64346C10.386 8.64346 8.87826 8.49768 7.5814 8.24569V4.62005C7.5814 3.58696 6.61193 2.74149 5.55252 3.07312C4.57111 3.38033 3.7219 3.77027 3.10283 4.24246C2.49454 4.70643 2 5.33865 2 6.13148V18.0787C2 18.294 2.03738 18.4996 2.10405 18.6934C2.16388 18.8674 2.24729 19.0319 2.34845 19.1856C2.67187 19.677 3.18915 20.0798 3.7886 20.409C4.3967 20.7431 5.13903 21.0285 5.97267 21.2614C7.64058 21.7273 9.73668 22 12 22C13.9009 22 15.6816 21.8076 17.1889 21.4712C18.6818 21.138 19.9619 20.6512 20.8188 20.0262C21.0272 19.8742 21.2239 19.7036 21.3949 19.5146C21.7545 19.1171 22 18.638 22 18.0787V6.13148C22 5.33865 21.5055 4.70643 20.8972 4.24246C20.2781 3.77027 19.4289 3.38033 18.4475 3.07312ZM20.6047 8.22659C20.5778 8.24416 20.5507 8.26148 20.5236 8.27855C19.7014 8.7951 18.5721 9.20856 17.27 9.50563C15.7455 9.85343 13.9349 10.0527 12 10.0527C10.0651 10.0527 8.25452 9.85343 6.73 9.50563C5.4279 9.20856 4.29864 8.7951 3.47645 8.27855C3.44929 8.26148 3.42224 8.24416 3.39535 8.22659V17.3892L6.22606 14.7138L7.50233 13.6349C8.42996 12.8507 9.81971 12.8937 10.6944 13.7388L13.7838 16.7236C14.0393 16.9704 14.4553 17.0087 14.759 16.8025L14.9737 16.6567C16.0566 15.9214 17.5173 16.0043 18.5058 16.8637L20.4069 18.5168C20.5626 18.3291 20.6047 18.1795 20.6047 18.0787V8.22659Z"
            fill="#012393" />
        <path opacity="1"
            d="M19.2096 12.8399C19.2096 13.6182 18.5849 14.2492 17.8143 14.2492C17.0437 14.2492 16.4189 13.6182 16.4189 12.8399C16.4189 12.0616 17.0437 11.4307 17.8143 11.4307C18.5849 11.4307 19.2096 12.0616 19.2096 12.8399Z"
            fill="#012393" />
    </g>
    <path style="fill:#56ebff;stroke-width:0.0623174"
        d="m 25.786933,23.406993 c -1.876084,-1.631759 -2.345632,-1.870916 -3.664246,-1.86633 -0.849832,0.003 -1.444079,0.178103 -2.177705,0.641856 -0.864602,0.546548 -1.076213,0.508394 -1.992994,-0.359332 -0.345258,-0.326785 -1.38572,-1.325507 -2.312137,-2.219382 -1.853174,-1.788077 -2.0679,-1.942687 -2.958254,-2.130033 -0.783407,-0.164843 -1.72501,0.0097 -2.361069,0.437783 C 9.7663784,18.28447 8.0865067,19.763124 6.3252191,21.4283 l -1.7137293,1.620212 -0.015894,-5.956918 c -0.00874,-3.276304 -0.00467,-5.96814 0.00905,-5.981857 0.013717,-0.01372 0.2592334,0.100329 0.5455922,0.253436 1.8796081,1.004966 4.7630493,1.69993 8.185696,1.972908 1.117178,0.0891 4.166516,0.09023 5.296981,0.002 3.659711,-0.285758 6.811638,-1.088391 8.615385,-2.193895 l 0.202532,-0.12413 v 6.577457 c 0,6.039248 -0.0086,6.595477 -0.105018,6.797682 -0.05776,0.121124 -0.120857,0.219079 -0.140215,0.217677 -0.01936,-0.0014 -0.657756,-0.544031 -1.418662,-1.205843 z M 24.413874,18.90866 c 0.397008,-0.135275 0.814509,-0.521846 1.023717,-0.947877 0.23986,-0.48845 0.250102,-1.200335 0.02388,-1.659971 -0.192209,-0.390535 -0.522676,-0.721001 -0.913211,-0.913211 -0.445932,-0.219474 -1.175598,-0.211174 -1.615449,0.01838 -1.036596,0.540982 -1.36498,1.722543 -0.760303,2.735655 0.208722,0.349705 0.638957,0.692347 1.001142,0.797317 0.313691,0.09091 0.928579,0.0759 1.240221,-0.03029 z"
        id="path242" transform="scale(0.75)" />

</svg>