<?xml version="1.0" encoding="UTF-8" standalone="no"?>
<svg
   id="svg30"
   version="1.1"
   width="24"
   height="24"
   sodipodi:docname="mActionOpenTableVisbileSelected.svg"
   inkscape:version="1.2.1 (9c6d41e410, 2022-07-14)"
   xmlns:inkscape="http://www.inkscape.org/namespaces/inkscape"
   xmlns:sodipodi="http://sodipodi.sourceforge.net/DTD/sodipodi-0.dtd"
   xmlns="http://www.w3.org/2000/svg"
   xmlns:svg="http://www.w3.org/2000/svg"
   xmlns:rdf="http://www.w3.org/1999/02/22-rdf-syntax-ns#"
   xmlns:cc="http://creativecommons.org/ns#"
   xmlns:dc="http://purl.org/dc/elements/1.1/">
  <sodipodi:namedview
     pagecolor="#ffffff"
     bordercolor="#666666"
     borderopacity="1"
     objecttolerance="10"
     gridtolerance="10"
     guidetolerance="10"
     inkscape:pageopacity="0"
     inkscape:pageshadow="2"
     inkscape:window-width="1920"
     inkscape:window-height="1017"
     id="namedview18"
     showgrid="false"
     inkscape:zoom="19.666667"
     inkscape:cx="9.457627"
     inkscape:cy="16.067796"
     inkscape:window-x="3832"
     inkscape:window-y="-8"
     inkscape:window-maximized="1"
     inkscape:current-layer="svg30"
     inkscape:showpageshadow="2"
     inkscape:pagecheckerboard="0"
     inkscape:deskcolor="#d1d1d1" />
  <metadata
     id="metadata36">
    <rdf:RDF>
      <cc:Work
         rdf:about="">
        <dc:format>image/svg+xml</dc:format>
        <dc:type
           rdf:resource="http://purl.org/dc/dcmitype/StillImage" />
      </cc:Work>
    </rdf:RDF>
  </metadata>
  <defs
     id="defs34" />
  <g
     id="g835">
    <path
       d="m 2.5,7.4999999 h 19 V 21.5 h -19 z"
       id="path2"
       inkscape:connector-curvature="0"
       style="fill:#e6e6e6;stroke:#6e97c4" />
    <path
       d="m 2.5,2.4999999 h 19 v 5 h -19 z"
       id="path4"
       inkscape:connector-curvature="0"
       style="fill:#bad9ec;stroke:#6e97c4" />
    <path
       d="M 5,4.9999999 H 9"
       id="path6"
       inkscape:connector-curvature="0"
       style="fill:none;stroke:#6e97c4;stroke-width:2" />
    <path
       d="m 11,4.9999999 h 7.999999"
       id="path8"
       inkscape:connector-curvature="0"
       style="fill:none;stroke:#6e97c4;stroke-width:2" />
    <path
       d="M 3.7756479,8.7756479 H 20.224352 V 18.724352 H 3.7756479 Z"
       id="path10"
       inkscape:connector-curvature="0"
       style="fill:#fce94f;fill-rule:evenodd;stroke:#c4a000;stroke-width:1.55129576;stroke-linecap:round" />
    <g
       transform="translate(0,-8)"
       id="g28"
       style="stroke:#6e97c4">
      <path
         d="M 5,18.7 H 9"
         id="path16"
         inkscape:connector-curvature="0"
         style="fill:none" />
      <path
         d="m 11,18.7 h 7.999999"
         id="path18"
         inkscape:connector-curvature="0"
         style="fill:none" />
      <path
         d="M 5,21.7 H 9"
         id="path20"
         inkscape:connector-curvature="0"
         style="fill:none" />
      <path
         d="m 11,21.7 h 7.999999"
         id="path22"
         inkscape:connector-curvature="0"
         style="fill:none" />
      <path
         d="M 5,24.7 H 9"
         id="path24"
         inkscape:connector-curvature="0"
         style="fill:none" />
      <path
         d="m 11,24.7 h 7.999999"
         id="path26"
         inkscape:connector-curvature="0"
         style="fill:none" />
    </g>
  </g>
  <path
     id="path8-6"
     style="opacity:0.8;fill:#e6e6e6;stroke:#505050;stroke-width:0.952781;stroke-linecap:round;stroke-linejoin:round;stroke-dashoffset:7"
     d="m 7.8712207,15.183025 a 4.3903515,4.2409464 0 0 0 4.3903513,4.240947 4.3903515,4.2409464 0 0 0 4.390352,-4.240947 4.3903515,4.2409464 0 0 0 -4.390352,-4.240946 4.3903515,4.2409464 0 0 0 -4.3903513,4.240946 z"
     inkscape:connector-curvature="0" />
  <g
     id="g16"
     style="fill-rule:evenodd"
     transform="matrix(0.93213407,0,0,0.90041324,1.1878198,1.7668683)">
    <path
       id="path10-9"
       d="m 16,17.8 c 0,1.18 -1.18,1.18 -1.18,1.18 l 4.12,4.12 1.18,-1.18 z"
       inkscape:connector-curvature="0"
       style="fill:#ffcc30;stroke:#505050;stroke-width:1.04;stroke-linejoin:round" />
    <path
       id="path12"
       d="m 16.9,18.7 -1.18,-1.18 -1.18,1.18 1.18,1.18 z"
       inkscape:connector-curvature="0"
       style="stroke:#505050;stroke-width:1.04;stroke-linejoin:round" />
    <path
       id="path14"
       d="m 14.5,12.2 c -1.18,-1.77 -2.62,-2 -3.53,-1.18 -0.917,0.823 1.18,0.589 2.36,1.77 1.18,1.18 0,3.53 1.18,3.53 1.18,0 1.18,-2.36 0,-4.12 z"
       inkscape:connector-curvature="0"
       style="opacity:0.7;fill:#fcffff" />
  </g>
</svg>
